<svg width="109" height="79" viewBox="0 0 109 79" fill="none" xmlns="http://www.w3.org/2000/svg">
<path d="M3 48.5625V5.05759L10.0411 2.00001V48.6936C10.0704 52.188 11.3319 55.1582 13.8256 57.6042C16.3487 60.0794 19.3558 61.317 22.847 61.317C26.3676 61.317 29.3894 60.0794 31.9124 57.6042C34.4061 55.1582 35.653 52.2316 35.653 48.8246C35.653 48.7664 35.653 48.7227 35.653 48.6936V21.4375L42.694 21.3064V48.5625C42.694 53.9206 40.7578 58.507 36.8852 62.3216C33.0126 66.1072 28.3332 68 22.847 68C17.3609 68 12.6815 66.1072 8.80888 62.3216C4.93629 58.507 3 53.9206 3 48.5625Z" fill="black"/>
<path d="M35.653 48.8246V21.4375C35.653 16.0794 37.5893 11.5076 41.4619 7.72205C45.3344 3.90736 50.0138 2.00001 55.5 2.00001C60.9862 2.00001 65.6655 3.90736 69.5381 7.72205C73.4107 11.5076 75.347 16.0794 75.347 21.4375V48.6936L68.3059 48.5625V21.3064C68.2766 17.8121 67.0151 14.8418 64.5214 12.3958C61.9983 9.92059 58.9912 8.683 55.5 8.683C51.9795 8.683 48.9577 9.92059 46.4346 12.3958C43.9409 14.8418 42.694 17.7684 42.694 21.1754C42.694 21.2336 42.694 21.2773 42.694 21.3064V48.5625L35.653 48.8246Z" fill="black"/>
<path d="M108 21.4375C108 21.4375 108 30.4792 108 48.5625C108 53.9206 106.064 58.5069 102.191 62.3216C98.3185 66.1072 93.6391 68 88.153 68C82.6375 68 77.9581 66.1072 74.1148 62.3216C70.2422 58.5069 68.3059 53.9206 68.3059 48.5625V21.4375C68.3059 16.0794 70.2422 11.5076 74.1148 7.72204C77.9874 3.90735 82.6668 2 88.153 2C93.6391 2 98.3185 3.90735 102.191 7.72204C106.064 11.5076 108 16.0794 108 21.4375ZM75.347 21.3064V48.6936C75.347 52.1588 76.5939 55.129 79.0876 57.6042C81.5813 60.0794 84.6031 61.317 88.153 61.317C91.6442 61.317 94.6513 60.0794 97.1743 57.6042C99.6681 55.1582 100.93 52.188 100.959 48.6936V21.3064C100.93 17.812 99.6681 14.8418 97.1743 12.3958C94.6513 9.92058 91.6442 8.68299 88.153 8.68299C84.6031 8.68299 81.5813 9.92058 79.0876 12.3958C76.5939 14.8418 75.347 17.812 75.347 21.3064Z" fill="black"/>
<path d="M57 24L53 28.6809V68L57 61.9149V24Z" fill="black" stroke="black"/>
<path d="M25 2L20 6.78723V47L25 40.7766V2Z" fill="black" stroke="black"/>
<path d="M90 16L85 20.0426V54L90 48.7447V16Z" fill="black" stroke="black"/>
<path d="M5.88867 70.5752V74.7324C5.88867 75.1807 5.79346 75.582 5.60303 75.9365C5.41553 76.291 5.13135 76.5723 4.75049 76.7803C4.36963 76.9854 3.89062 77.0879 3.31348 77.0879C2.49023 77.0879 1.86328 76.8726 1.43262 76.4419C1.00488 76.0083 0.791016 75.4326 0.791016 74.7148V70.5752H1.8457V74.6226C1.8457 75.1587 1.97168 75.5542 2.22363 75.8091C2.47559 76.064 2.85205 76.1914 3.35303 76.1914C3.69873 76.1914 3.97998 76.1313 4.19678 76.0112C4.4165 75.8882 4.57764 75.7095 4.68018 75.4751C4.78564 75.2378 4.83838 74.9521 4.83838 74.6182V70.5752H5.88867ZM12.8936 77H11.5972L8.45068 71.8716H8.41113C8.42285 72.0444 8.43311 72.2275 8.44189 72.4209C8.45361 72.6143 8.4624 72.8135 8.46826 73.0186C8.47705 73.2236 8.48438 73.4316 8.49023 73.6426V77H7.53223V70.5752H8.81982L11.9619 75.6685H11.9927C11.9868 75.519 11.9795 75.3477 11.9707 75.1543C11.9619 74.9609 11.9531 74.7617 11.9443 74.5566C11.9385 74.3486 11.9341 74.1479 11.9312 73.9546V70.5752H12.8936V77ZM19.626 70.5752V74.7324C19.626 75.1807 19.5308 75.582 19.3403 75.9365C19.1528 76.291 18.8687 76.5723 18.4878 76.7803C18.1069 76.9854 17.6279 77.0879 17.0508 77.0879C16.2275 77.0879 15.6006 76.8726 15.1699 76.4419C14.7422 76.0083 14.5283 75.4326 14.5283 74.7148V70.5752H15.583V74.6226C15.583 75.1587 15.709 75.5542 15.9609 75.8091C16.2129 76.064 16.5894 76.1914 17.0903 76.1914C17.436 76.1914 17.7173 76.1313 17.9341 76.0112C18.1538 75.8882 18.3149 75.7095 18.4175 75.4751C18.5229 75.2378 18.5757 74.9521 18.5757 74.6182V70.5752H19.626ZM21.2695 70.5752H23.1812C24.0103 70.5752 24.6357 70.6953 25.0576 70.9355C25.4795 71.1758 25.6904 71.5903 25.6904 72.1792C25.6904 72.4253 25.6465 72.6479 25.5586 72.8472C25.4736 73.0435 25.3491 73.2061 25.1851 73.335C25.021 73.4609 24.8188 73.5459 24.5786 73.5898V73.6338C24.8276 73.6777 25.0488 73.7554 25.2422 73.8667C25.4385 73.978 25.5923 74.1377 25.7036 74.3457C25.8179 74.5537 25.875 74.8232 25.875 75.1543C25.875 75.5469 25.7812 75.8809 25.5938 76.1562C25.4092 76.4316 25.144 76.6411 24.7983 76.7847C24.4556 76.9282 24.0483 77 23.5767 77H21.2695V70.5752ZM22.3242 73.2251H23.335C23.8125 73.2251 24.1436 73.1475 24.3281 72.9922C24.5127 72.8369 24.605 72.6099 24.605 72.311C24.605 72.0063 24.4951 71.7866 24.2754 71.6519C24.0586 71.5171 23.7129 71.4497 23.2383 71.4497H22.3242V73.2251ZM22.3242 74.0776V76.1167H23.436C23.9282 76.1167 24.2739 76.0215 24.4731 75.8311C24.6724 75.6406 24.772 75.3828 24.772 75.0576C24.772 74.8584 24.7266 74.6855 24.6357 74.5391C24.5479 74.3926 24.4028 74.2798 24.2007 74.2007C23.9985 74.1187 23.7261 74.0776 23.3833 74.0776H22.3242ZM32.9062 73.7788C32.9062 74.2739 32.8433 74.7251 32.7173 75.1323C32.5942 75.5366 32.4082 75.8853 32.1592 76.1782C31.9102 76.4683 31.5981 76.6924 31.2231 76.8506C30.8481 77.0088 30.4087 77.0879 29.9048 77.0879C29.3921 77.0879 28.9468 77.0088 28.5688 76.8506C28.1938 76.6924 27.8818 76.4668 27.6328 76.1738C27.3867 75.8809 27.2021 75.5308 27.0791 75.1235C26.9561 74.7163 26.8945 74.2651 26.8945 73.77C26.8945 73.1079 27.0029 72.5308 27.2197 72.0386C27.4395 71.5435 27.772 71.1597 28.2173 70.8872C28.6655 70.6118 29.231 70.4741 29.9136 70.4741C30.5815 70.4741 31.1367 70.6104 31.5791 70.8828C32.0215 71.1553 32.3525 71.5391 32.5723 72.0342C32.7949 72.5264 32.9062 73.1079 32.9062 73.7788ZM28.002 73.7788C28.002 74.2739 28.0693 74.7031 28.2041 75.0664C28.3389 75.4268 28.5454 75.7051 28.8237 75.9014C29.105 76.0947 29.4653 76.1914 29.9048 76.1914C30.3472 76.1914 30.7075 76.0947 30.9858 75.9014C31.2642 75.7051 31.4692 75.4268 31.6011 75.0664C31.7329 74.7031 31.7988 74.2739 31.7988 73.7788C31.7988 73.0259 31.6479 72.437 31.3462 72.0122C31.0474 71.5845 30.5698 71.3706 29.9136 71.3706C29.4741 71.3706 29.1123 71.4673 28.8281 71.6606C28.5469 71.854 28.3389 72.1309 28.2041 72.4912C28.0693 72.8486 28.002 73.2778 28.002 73.7788ZM34.2861 77V70.5752H35.3408V76.1035H38.0698V77H34.2861ZM44.3979 73.7261C44.3979 74.4497 44.2632 75.0547 43.9937 75.541C43.7241 76.0244 43.333 76.3892 42.8203 76.6353C42.3076 76.8784 41.6895 77 40.9658 77H39.1816V70.5752H41.1592C41.8242 70.5752 42.3984 70.6953 42.8818 70.9355C43.3652 71.1729 43.7388 71.5259 44.0024 71.9946C44.2661 72.4604 44.3979 73.0376 44.3979 73.7261ZM43.2993 73.7568C43.2993 73.2295 43.2158 72.7959 43.0488 72.4561C42.8848 72.1162 42.6416 71.8643 42.3193 71.7002C42 71.5332 41.606 71.4497 41.1372 71.4497H40.2363V76.1167H40.9834C41.7598 76.1167 42.3398 75.9189 42.7236 75.5234C43.1074 75.1279 43.2993 74.5391 43.2993 73.7568ZM50.8931 77L49.043 71.6343H49.0034C49.0122 71.7544 49.0225 71.9185 49.0342 72.1265C49.0459 72.3345 49.0562 72.5571 49.0649 72.7944C49.0737 73.0317 49.0781 73.2588 49.0781 73.4756V77H48.1201V70.5752H49.6011L51.3809 75.7036H51.4072L53.2485 70.5752H54.7251V77H53.7188V73.4229C53.7188 73.2266 53.7217 73.0142 53.7275 72.7856C53.7363 72.5571 53.7451 72.3403 53.7539 72.1353C53.7656 71.9302 53.7744 71.7661 53.7803 71.6431H53.7451L51.8247 77H50.8931ZM61.4619 70.5752V74.7324C61.4619 75.1807 61.3667 75.582 61.1763 75.9365C60.9888 76.291 60.7046 76.5723 60.3237 76.7803C59.9429 76.9854 59.4639 77.0879 58.8867 77.0879C58.0635 77.0879 57.4365 76.8726 57.0059 76.4419C56.5781 76.0083 56.3643 75.4326 56.3643 74.7148V70.5752H57.4189V74.6226C57.4189 75.1587 57.5449 75.5542 57.7969 75.8091C58.0488 76.064 58.4253 76.1914 58.9263 76.1914C59.272 76.1914 59.5532 76.1313 59.77 76.0112C59.9897 75.8882 60.1509 75.7095 60.2534 75.4751C60.3589 75.2378 60.4116 74.9521 60.4116 74.6182V70.5752H61.4619ZM68.4668 77H67.1704L64.0239 71.8716H63.9844C63.9961 72.0444 64.0063 72.2275 64.0151 72.4209C64.0269 72.6143 64.0356 72.8135 64.0415 73.0186C64.0503 73.2236 64.0576 73.4316 64.0635 73.6426V77H63.1055V70.5752H64.3931L67.5352 75.6685H67.5659C67.5601 75.519 67.5527 75.3477 67.5439 75.1543C67.5352 74.9609 67.5264 74.7617 67.5176 74.5566C67.5117 74.3486 67.5073 74.1479 67.5044 73.9546V70.5752H68.4668V77ZM75.0542 77H73.8413L71.8418 74.082L71.209 74.5962V77H70.1543V70.5752H71.209V73.647C71.3379 73.4888 71.4683 73.3306 71.6001 73.1724C71.7319 73.0142 71.8638 72.856 71.9956 72.6978L73.8062 70.5752H74.9971L72.5977 73.3877L75.0542 77ZM80.9692 77H79.9189V74.0996H76.957V77H75.9023V70.5752H76.957V73.2031H79.9189V70.5752H80.9692V77ZM82.6699 70.5752H84.5815C85.4106 70.5752 86.0361 70.6953 86.458 70.9355C86.8799 71.1758 87.0908 71.5903 87.0908 72.1792C87.0908 72.4253 87.0469 72.6479 86.959 72.8472C86.874 73.0435 86.7495 73.2061 86.5854 73.335C86.4214 73.4609 86.2192 73.5459 85.979 73.5898V73.6338C86.228 73.6777 86.4492 73.7554 86.6426 73.8667C86.8389 73.978 86.9927 74.1377 87.104 74.3457C87.2183 74.5537 87.2754 74.8232 87.2754 75.1543C87.2754 75.5469 87.1816 75.8809 86.9941 76.1562C86.8096 76.4316 86.5444 76.6411 86.1987 76.7847C85.856 76.9282 85.4487 77 84.9771 77H82.6699V70.5752ZM83.7246 73.2251H84.7354C85.2129 73.2251 85.5439 73.1475 85.7285 72.9922C85.9131 72.8369 86.0054 72.6099 86.0054 72.311C86.0054 72.0063 85.8955 71.7866 85.6758 71.6519C85.459 71.5171 85.1133 71.4497 84.6387 71.4497H83.7246V73.2251ZM83.7246 74.0776V76.1167H84.8364C85.3286 76.1167 85.6743 76.0215 85.8735 75.8311C86.0728 75.6406 86.1724 75.3828 86.1724 75.0576C86.1724 74.8584 86.127 74.6855 86.0361 74.5391C85.9482 74.3926 85.8032 74.2798 85.6011 74.2007C85.3989 74.1187 85.1265 74.0776 84.7837 74.0776H83.7246ZM94.3066 73.7788C94.3066 74.2739 94.2437 74.7251 94.1177 75.1323C93.9946 75.5366 93.8086 75.8853 93.5596 76.1782C93.3105 76.4683 92.9985 76.6924 92.6235 76.8506C92.2485 77.0088 91.8091 77.0879 91.3052 77.0879C90.7925 77.0879 90.3472 77.0088 89.9692 76.8506C89.5942 76.6924 89.2822 76.4668 89.0332 76.1738C88.7871 75.8809 88.6025 75.5308 88.4795 75.1235C88.3564 74.7163 88.2949 74.2651 88.2949 73.77C88.2949 73.1079 88.4033 72.5308 88.6201 72.0386C88.8398 71.5435 89.1724 71.1597 89.6177 70.8872C90.0659 70.6118 90.6313 70.4741 91.314 70.4741C91.9819 70.4741 92.5371 70.6104 92.9795 70.8828C93.4219 71.1553 93.7529 71.5391 93.9727 72.0342C94.1953 72.5264 94.3066 73.1079 94.3066 73.7788ZM89.4023 73.7788C89.4023 74.2739 89.4697 74.7031 89.6045 75.0664C89.7393 75.4268 89.9458 75.7051 90.2241 75.9014C90.5054 76.0947 90.8657 76.1914 91.3052 76.1914C91.7476 76.1914 92.1079 76.0947 92.3862 75.9014C92.6646 75.7051 92.8696 75.4268 93.0015 75.0664C93.1333 74.7031 93.1992 74.2739 93.1992 73.7788C93.1992 73.0259 93.0483 72.437 92.7466 72.0122C92.4478 71.5845 91.9702 71.3706 91.314 71.3706C90.8745 71.3706 90.5127 71.4673 90.2285 71.6606C89.9473 71.854 89.7393 72.1309 89.6045 72.4912C89.4697 72.8486 89.4023 73.2778 89.4023 73.7788ZM95.6865 77V70.5752H96.7412V76.1035H99.4702V77H95.6865ZM105.798 73.7261C105.798 74.4497 105.664 75.0547 105.394 75.541C105.125 76.0244 104.733 76.3892 104.221 76.6353C103.708 76.8784 103.09 77 102.366 77H100.582V70.5752H102.56C103.225 70.5752 103.799 70.6953 104.282 70.9355C104.766 71.1729 105.139 71.5259 105.403 71.9946C105.667 72.4604 105.798 73.0376 105.798 73.7261ZM104.7 73.7568C104.7 73.2295 104.616 72.7959 104.449 72.4561C104.285 72.1162 104.042 71.8643 103.72 71.7002C103.4 71.5332 103.006 71.4497 102.538 71.4497H101.637V76.1167H102.384C103.16 76.1167 103.74 75.9189 104.124 75.5234C104.508 75.1279 104.7 74.5391 104.7 73.7568Z" fill="black"/>
</svg>
