<svg width="135" height="89" viewBox="0 0 135 89" fill="none" xmlns="http://www.w3.org/2000/svg">
<path d="M0 61.9669V5.9378L9.05281 2.00001V62.1357C9.09053 66.636 10.7125 70.4613 13.9187 73.6115C17.1626 76.7993 21.0289 78.3931 25.5176 78.3931C30.044 78.3931 33.9292 76.7993 37.1731 73.6115C40.3793 70.4613 41.9824 66.6923 41.9824 62.3044C41.9824 62.2294 41.9824 62.1732 41.9824 62.1357V27.0331L51.0352 26.8643V61.9669C51.0352 68.8674 48.5457 74.7741 43.5666 79.687C38.5876 84.5623 32.5712 87 25.5176 87C18.464 87 12.4476 84.5623 7.46857 79.687C2.48952 74.7741 0 68.8674 0 61.9669Z" fill="#1D1F20"/>
<path d="M41.9824 62.3044V27.0331C41.9824 20.1326 44.4719 14.2447 49.451 9.3693C54.43 4.45644 60.4464 2.00001 67.5 2.00001C74.5536 2.00001 80.57 4.45644 85.549 9.3693C90.5281 14.2447 93.0176 20.1326 93.0176 27.0331V62.1357L83.9648 61.9669V26.8643C83.9271 22.364 82.3051 18.5387 79.0989 15.3885C75.855 12.2008 71.9887 10.6069 67.5 10.6069C62.9736 10.6069 59.0884 12.2008 55.8445 15.3885C52.6383 18.5387 51.0352 22.3078 51.0352 26.6956C51.0352 26.7706 51.0352 26.8268 51.0352 26.8643V61.9669L41.9824 62.3044Z" fill="#1D1F20"/>
<path d="M135 27.0331C135 27.0331 135 38.6777 135 61.9669C135 68.8674 132.51 74.7741 127.531 79.687C122.552 84.5623 116.536 87 109.482 87C102.391 87 96.3747 84.5623 91.4334 79.687C86.4543 74.7741 83.9648 68.8674 83.9648 61.9669V27.0331C83.9648 20.1326 86.4543 14.2446 91.4334 9.36929C96.4124 4.45643 102.429 2 109.482 2C116.536 2 122.552 4.45643 127.531 9.36929C132.51 14.2446 135 20.1326 135 27.0331ZM93.0176 26.8643V62.1357C93.0176 66.5985 94.6207 70.4238 97.8269 73.6115C101.033 76.7992 104.918 78.3931 109.482 78.3931C113.971 78.3931 117.837 76.7992 121.081 73.6115C124.288 70.4613 125.909 66.636 125.947 62.1357V26.8643C125.909 22.364 124.288 18.5387 121.081 15.3885C117.837 12.2007 113.971 10.6069 109.482 10.6069C104.918 10.6069 101.033 12.2007 97.8269 15.3885C94.6207 18.5387 93.0176 22.364 93.0176 26.8643Z" fill="#1D1F20"/>
<path d="M69.2457 30.5273L64.5905 36.5351V86.9999L69.2457 79.1899V30.5273Z" fill="#1D1F20" stroke="#1D1F20"/>
<path d="M28.5129 2L22.1121 8.19353V60.2192L28.5129 52.1676V2Z" fill="#1D1F20" stroke="#1D1F20"/>
<path d="M111.724 20.048L105.323 25.2505V68.9521L111.724 62.1888V20.048Z" fill="#1D1F20" stroke="#1D1F20"/>
</svg>
