<svg width="281" height="255" viewBox="0 0 281 255" fill="none" xmlns="http://www.w3.org/2000/svg">
<path opacity="0.7" d="M155 78C155 118.317 121.198 151 79.5 151C37.8025 151 4 118.317 4 78C4 37.6832 37.8025 5 79.5 5C121.198 5 155 37.6832 155 78Z" fill="#BDB2AB"/>
<ellipse opacity="0.5" cx="165" cy="148" rx="107" ry="104" fill="#AFC5D7"/>
<circle opacity="0.8" cx="260" cy="209" r="17" fill="#14273E"/>
<path d="M280.9 149.5C280.9 207.71 233.264 254.9 174.5 254.9C115.736 254.9 68.1 207.71 68.1 149.5C68.1 91.2901 115.736 44.1 174.5 44.1C233.264 44.1 280.9 91.2901 280.9 149.5Z" stroke="black" stroke-width="0.2"/>
<path opacity="0.7" d="M95.904 81.84C95.2213 83.504 94.0053 84.8053 92.256 85.744C90.5067 86.6827 88.4587 87.3867 86.112 87.856C83.9787 88.24 81.6747 88.4533 79.2 88.496C76.768 88.5813 74.3147 88.5387 71.84 88.368C69.408 88.24 67.0827 88.048 64.864 87.792C62.6453 87.5787 60.6827 87.3653 58.976 87.152H58.848C57.6533 86.512 56.352 85.7867 54.944 84.976C53.5787 84.1653 52.4693 83.2053 51.616 82.096C51.0613 81.3707 50.656 80.6027 50.4 79.792C50.1867 78.9387 50.208 78 50.464 76.976C50.592 77.0187 50.656 77.104 50.656 77.232C50.656 77.36 50.7413 77.424 50.912 77.424C51.0827 77.2533 51.1467 77.1253 51.104 77.04C51.0613 76.912 50.9973 76.784 50.912 76.656C50.784 76.528 50.6773 76.4 50.592 76.272C50.5493 76.1013 50.5493 75.9093 50.592 75.696C50.72 75.7387 50.784 75.824 50.784 75.952C50.784 76.08 50.8693 76.144 51.04 76.144C50.9973 75.5893 50.9973 75.056 51.04 74.544C51.0827 74.032 51.1253 73.52 51.168 73.008C51.2533 72.0693 51.2747 71.152 51.232 70.256C51.232 69.3173 51.0187 68.3147 50.592 67.248C51.2747 66.224 51.5947 65.264 51.552 64.368C51.5093 63.4293 51.296 62.512 50.912 61.616C50.528 60.72 50.0373 59.824 49.44 58.928C48.8427 58.032 48.352 57.1147 47.968 56.176C47.9253 55.9627 48.1387 55.856 48.608 55.856C48.864 55.856 49.056 55.8347 49.184 55.792C49.3547 55.7067 49.312 55.472 49.056 55.088C50.336 55.088 51.7867 55.0027 53.408 54.832C55.0293 54.6187 56.6293 54.4053 58.208 54.192C59.3173 54.0213 60.3627 53.872 61.344 53.744C62.3253 53.616 63.2213 53.5307 64.032 53.488C65.0133 51.9947 65.8453 50.3947 66.528 48.688C67.2533 46.9387 67.8933 45.1467 68.448 43.312C68.2347 43.312 68 43.312 67.744 43.312C67.5307 43.312 67.3173 43.3333 67.104 43.376C65.824 43.376 64.5013 43.376 63.136 43.376C61.7707 43.376 60.4693 43.2907 59.232 43.12C58.9333 43.248 58.6773 43.44 58.464 43.696C58.2507 43.9093 58.0587 44.144 57.888 44.4C57.5893 44.7413 57.2693 45.0613 56.928 45.36C56.6293 45.6587 56.224 45.744 55.712 45.616C55.7547 45.7013 55.8613 45.7867 56.032 45.872C56.16 45.9147 56.1387 46.0427 55.968 46.256C54.5173 47.4933 53.1093 48.7947 51.744 50.16C50.3787 51.4827 48.9493 52.7627 47.456 54C45.9627 55.1947 44.2773 56.24 42.4 57.136C42.272 56.752 41.952 56.3467 41.44 55.92C40.9707 55.4933 40.5013 55.088 40.032 54.704C42.8907 52.5707 45.6213 50.352 48.224 48.048C50.8693 45.744 53.0453 43.056 54.752 39.984C54.7093 39.728 54.56 39.5147 54.304 39.344C54.0907 39.1733 53.8773 39.024 53.664 38.896C53.3653 38.7253 53.1093 38.5547 52.896 38.384C52.7253 38.1707 52.704 37.8933 52.832 37.552C52.9173 37.552 52.96 37.5093 52.96 37.424C52.96 37.296 52.9813 37.1893 53.024 37.104C53.28 37.0613 53.4933 37.0613 53.664 37.104C53.8773 37.104 54.0907 37.104 54.304 37.104C54.432 37.1467 54.5387 37.1893 54.624 37.232C54.752 37.232 54.9013 37.232 55.072 37.232C55.9253 36.6773 56.928 36.4853 58.08 36.656C59.2747 36.784 60.3413 37.168 61.28 37.808C62.2187 38.4053 62.752 39.1307 62.88 39.984C63.9893 39.7707 65.1413 39.6213 66.336 39.536C67.5733 39.408 68.4053 38.96 68.832 38.192C70.88 38.3627 72.736 38.6613 74.4 39.088C76.1067 39.5147 77.536 40.3893 78.688 41.712C78.4747 42.5227 77.92 43.0347 77.024 43.248C76.128 43.4187 75.232 43.6107 74.336 43.824C73.6107 44.8907 72.864 46.2773 72.096 47.984C71.3707 49.648 70.688 51.2267 70.048 52.72C71.5413 52.6347 72.9493 52.4853 74.272 52.272C75.6373 52.016 76.6827 51.5467 77.408 50.864C79.7547 51.0347 81.8667 51.568 83.744 52.464C85.6213 53.3173 86.816 54.5973 87.328 56.304C86.56 56.688 85.7707 57.008 84.96 57.264C84.1493 57.52 83.3173 57.6907 82.464 57.776C82.1227 58.7147 81.8027 59.9093 81.504 61.36C81.2053 62.768 80.8427 64.112 80.416 65.392C80.032 66.6293 79.4773 67.4827 78.752 67.952C78.4107 68.1653 78.048 68.2933 77.664 68.336C77.28 68.336 76.832 68.336 76.32 68.336C76.1067 68.336 75.8933 68.336 75.68 68.336C75.4667 68.336 75.232 68.336 74.976 68.336C72.16 68.4213 69.1733 68.6987 66.016 69.168C62.8587 69.5947 59.7227 69.9787 56.608 70.32C56.0107 71.8987 55.5627 73.648 55.264 75.568C55.008 77.488 55.2 79.28 55.84 80.944C57.376 81.7547 59.36 82.3307 61.792 82.672C64.2667 83.0133 66.8267 83.1627 69.472 83.12C72.2453 83.0347 74.9333 82.736 77.536 82.224C80.1387 81.6693 82.2507 80.9013 83.872 79.92C84.4693 79.0667 84.8533 78.0427 85.024 76.848C85.2373 75.6533 85.344 74.3947 85.344 73.072C85.344 72.5173 85.3227 72.048 85.28 71.664C85.2373 71.2373 85.216 70.8747 85.216 70.576C85.7707 70.6187 86.176 70.832 86.432 71.216C86.688 71.6 86.9227 72.1333 87.136 72.816C87.3493 73.4987 87.84 74.0107 88.608 74.352C89.4187 74.6933 90.016 74.9707 90.4 75.184C91.3813 75.696 92.064 76.3573 92.448 77.168C92.8747 77.9787 93.3013 78.8107 93.728 79.664C94.1973 80.4747 94.9227 81.2 95.904 81.84ZM76.064 56.048C75.3813 56.1333 74.7413 56.176 74.144 56.176C73.5893 56.176 73.056 56.176 72.544 56.176C71.8613 56.1333 71.2213 56.1333 70.624 56.176C70.0693 56.176 69.5787 56.304 69.152 56.56C69.2373 57.6267 69.1947 58.7573 69.024 59.952C68.8533 61.1467 68.6613 62.32 68.448 63.472C68.3627 63.8133 68.2773 64.1547 68.192 64.496C68.1493 64.8373 68.1067 65.1787 68.064 65.52C68.5333 65.52 68.9813 65.4987 69.408 65.456C69.8347 65.4133 70.2613 65.3707 70.688 65.328C71.328 65.2427 71.9253 65.1787 72.48 65.136C73.0347 65.0933 73.5893 65.1787 74.144 65.392V65.328C74.7413 63.792 75.2107 62.3627 75.552 61.04C75.936 59.6747 76.1067 58.0107 76.064 56.048ZM63.584 65.776C63.584 65.3493 63.6053 64.9013 63.648 64.432C63.6907 63.9627 63.7333 63.472 63.776 62.96C63.8613 61.9787 63.904 60.9973 63.904 60.016C63.9467 59.0347 63.7547 58.1387 63.328 57.328C62.304 57.2427 61.3867 57.2853 60.576 57.456C59.7653 57.6267 58.9973 57.8187 58.272 58.032C57.9307 58.1173 57.5893 58.2027 57.248 58.288C56.9067 58.3733 56.5653 58.4587 56.224 58.544C56.864 59.056 57.3547 59.8027 57.696 60.784C57.184 61.5947 56.928 62.4693 56.928 63.408C56.928 64.3467 56.8213 65.3067 56.608 66.288C57.8453 66.288 59.0187 66.2667 60.128 66.224C61.2373 66.1387 62.3893 65.9893 63.584 65.776Z" fill="black"/>
<path d="M120.9 141.006C120.346 141.005 120.069 140.663 120.07 139.98C120.071 139.425 120.349 139.149 120.904 139.15C123.293 139.154 124.894 138.859 125.706 138.263C126.56 137.667 126.989 136.665 126.991 135.257L127.059 100.185C127.061 98.9054 126.679 97.9446 125.912 97.3032C125.145 96.6617 123.61 96.3388 121.306 96.3343C120.751 96.3333 120.475 96.0127 120.476 95.3727C120.477 94.8181 120.755 94.5413 121.31 94.5423C121.651 94.543 123.272 94.5674 126.173 94.6157C129.117 94.664 133.427 94.6936 139.101 94.7045C144.477 94.7148 148.552 94.7013 151.325 94.664C154.099 94.6266 155.677 94.6083 156.061 94.609C157.043 94.6109 157.554 95.1026 157.595 96.084C157.679 96.4682 157.742 97.1083 157.783 98.0044C157.824 98.8578 157.865 99.7752 157.906 100.757C157.946 101.738 157.966 102.613 157.965 103.381C158.006 104.149 158.026 104.64 158.026 104.853C158.026 105.024 157.982 105.215 157.897 105.429C157.811 105.599 157.619 105.684 157.32 105.683C157.022 105.683 156.787 105.661 156.616 105.618C156.489 105.533 156.361 105.34 156.233 105.041C155.724 103.888 155.065 102.671 154.256 101.39C153.491 100.065 152.448 98.9328 151.127 97.9916C149.849 97.0505 148.164 96.5779 146.074 96.5739L134.81 96.5523L134.772 116.264L138.868 116.272C140.66 116.276 142.026 115.894 142.966 115.128C143.906 114.362 144.591 113.467 145.019 112.444C145.491 111.421 145.876 110.547 146.176 109.822C146.305 109.481 146.412 109.247 146.498 109.119C146.626 108.948 146.861 108.863 147.202 108.864C147.501 108.865 147.693 108.972 147.777 109.185C147.905 109.399 147.969 109.612 147.968 109.826C147.968 110.167 147.945 110.785 147.901 111.681C147.899 112.535 147.876 113.473 147.831 114.497C147.829 115.521 147.828 116.46 147.826 117.313C147.824 118.124 147.822 119.105 147.82 120.257C147.861 121.367 147.88 122.391 147.878 123.329C147.919 124.225 147.939 124.823 147.939 125.122C147.938 125.762 147.681 126.081 147.169 126.08C146.7 126.079 146.38 125.801 146.211 125.246C145.914 124.435 145.531 123.496 145.064 122.428C144.597 121.318 143.895 120.356 142.958 119.544C142.021 118.689 140.656 118.26 138.864 118.256L134.768 118.248L134.731 137.704C134.729 138.515 135.155 138.921 136.008 138.923L144.648 138.939C146.696 138.943 148.425 138.584 149.834 137.861C151.244 137.096 152.398 136.159 153.296 135.052C154.237 133.902 154.964 132.772 155.478 131.664C155.993 130.513 156.378 129.554 156.636 128.786C156.765 128.402 156.893 128.189 157.021 128.147C157.192 128.105 157.427 128.105 157.725 128.148C157.768 128.148 157.789 128.148 157.789 128.148C158.13 128.192 158.322 128.299 158.365 128.47C158.407 128.64 158.428 128.832 158.427 129.046C158.427 129.216 158.405 129.75 158.36 130.646C158.359 131.542 158.335 132.587 158.29 133.781C158.288 134.933 158.265 136.021 158.22 137.045C158.218 138.027 158.217 138.709 158.216 139.093C158.215 139.648 158.043 140.117 157.701 140.5C157.402 140.884 156.954 141.075 156.356 141.074C156.058 141.073 155.396 141.051 154.372 141.006C153.349 140.961 151.663 140.937 149.317 140.932C146.97 140.885 143.685 140.857 139.461 140.849C134.255 140.839 129.967 140.874 126.596 140.953C123.268 140.989 121.37 141.007 120.9 141.006Z" fill="black"/>
<path d="M120.954 200.007C120.357 200.006 120.059 199.728 120.06 199.173C120.062 198.49 120.361 198.15 120.959 198.151C123.263 198.157 124.842 197.883 125.697 197.33C126.551 196.778 126.98 195.776 126.984 194.325L127.068 159.062C127.071 157.824 126.732 156.906 126.05 156.307C125.412 155.666 123.919 155.342 121.573 155.336C121.018 155.335 120.742 154.993 120.743 154.31C120.745 153.756 121.023 153.479 121.577 153.48C121.961 153.481 123.049 153.505 124.841 153.552C126.633 153.599 128.681 153.625 130.985 153.631C132.521 153.635 133.972 153.638 135.337 153.641C136.702 153.602 137.854 153.583 138.793 153.585C139.774 153.545 140.372 153.525 140.585 153.526C141.182 153.527 141.48 153.805 141.479 154.36C141.478 155.043 141.178 155.383 140.581 155.382C138.234 155.376 136.676 155.692 135.906 156.331C135.18 156.926 134.815 157.843 134.812 159.08L134.722 196.776C134.72 197.629 135.167 198.057 136.063 198.059L145.983 198.083C148.074 198.088 149.91 197.495 151.491 196.304C153.115 195.113 154.484 193.644 155.598 191.898C156.754 190.108 157.654 188.361 158.298 186.656C158.427 186.315 158.598 186.102 158.812 186.017C159.025 185.89 159.218 185.848 159.388 185.891C159.729 185.934 159.942 186.063 160.027 186.276C160.112 186.447 160.154 186.639 160.154 186.852C160.154 186.98 160.152 187.514 160.15 188.452C160.148 189.391 160.124 190.522 160.078 191.844C160.075 193.124 160.051 194.362 160.005 195.556C160.002 196.751 159.979 197.647 159.935 198.244C159.891 198.798 159.719 199.246 159.42 199.587C159.12 199.927 158.672 200.097 158.074 200.095C157.776 200.095 156.986 200.093 155.706 200.09C154.426 200.044 152.506 200.018 149.946 200.012C147.386 200.006 143.994 199.998 139.77 199.988C136.272 199.98 133.157 199.972 130.427 199.966C127.696 199.959 125.498 199.975 123.834 200.014C122.213 200.01 121.253 200.008 120.954 200.007Z" fill="black"/>
<path d="M182.528 141C181.931 141 181.632 140.723 181.632 140.168C181.632 139.485 181.931 139.144 182.528 139.144C184.405 139.144 185.792 138.931 186.688 138.504C187.627 138.035 188.096 137.075 188.096 135.624V123.528C184.768 117.341 182.165 112.477 180.288 108.936C178.453 105.395 177.173 102.899 176.448 101.448C175.723 99.9973 175.403 99.3147 175.488 99.4C174.635 98.1627 173.845 97.352 173.12 96.968C172.395 96.584 171.413 96.392 170.176 96.392C169.621 96.392 169.344 96.072 169.344 95.432C169.344 94.8347 169.621 94.536 170.176 94.536C170.645 94.536 171.584 94.5787 172.992 94.664C174.4 94.7067 175.893 94.728 177.472 94.728C178.752 94.728 180.117 94.728 181.568 94.728C183.061 94.6853 184.363 94.6427 185.472 94.6C186.624 94.5573 187.285 94.536 187.456 94.536C188.096 94.536 188.416 94.8347 188.416 95.432C188.416 96.072 188.096 96.392 187.456 96.392C186.091 96.392 185.152 96.712 184.64 97.352C184.171 97.992 184.277 98.952 184.96 100.232C185.856 101.981 186.88 103.987 188.032 106.248C189.227 108.509 190.421 110.728 191.616 112.904C192.811 115.037 193.835 116.872 194.688 118.408C195.371 117.299 196.139 115.997 196.992 114.504C197.888 113.011 198.784 111.475 199.68 109.896C200.576 108.317 201.408 106.824 202.176 105.416C202.944 103.965 203.541 102.771 203.968 101.832C204.608 100.339 204.48 99.0587 203.584 97.992C202.688 96.9253 201.237 96.392 199.232 96.392C198.677 96.392 198.4 96.072 198.4 95.432C198.4 94.8347 198.677 94.536 199.232 94.536C199.701 94.536 200.64 94.5787 202.048 94.664C203.456 94.7067 205.163 94.728 207.168 94.728C209.045 94.728 210.603 94.7067 211.84 94.664C213.12 94.5787 213.973 94.536 214.4 94.536C215.04 94.536 215.36 94.8347 215.36 95.432C215.36 96.072 215.04 96.392 214.4 96.392C212.736 96.392 211.264 96.9467 209.984 98.056C208.747 99.1653 207.573 100.659 206.464 102.536C206.165 103.048 205.589 104.051 204.736 105.544C203.925 106.995 202.987 108.68 201.92 110.6C200.896 112.52 199.851 114.461 198.784 116.424C197.717 118.344 196.779 120.051 195.968 121.544V135.624C195.968 137.117 196.352 138.077 197.12 138.504C197.931 138.931 199.189 139.144 200.896 139.144C201.493 139.144 201.792 139.485 201.792 140.168C201.792 140.723 201.493 141 200.896 141C200.341 141 199.381 140.957 198.016 140.872C196.693 140.787 194.709 140.744 192.064 140.744C189.547 140.744 187.477 140.787 185.856 140.872C184.235 140.957 183.125 141 182.528 141Z" fill="black"/>
<path d="M205.064 201.192C203.912 201.235 203.059 201.192 202.504 201.064C201.992 200.936 201.565 200.595 201.224 200.04C200.669 199.187 199.837 197.885 198.728 196.136C197.661 194.344 196.403 192.296 194.952 189.992C193.501 187.645 191.965 185.192 190.344 182.632C188.765 180.029 187.187 177.469 185.608 174.952C184.029 172.435 182.557 170.109 181.192 167.976C179.869 165.8 178.739 163.987 177.8 162.536C176.861 161.043 176.243 160.083 175.944 159.656V190.504C175.944 193.747 176.563 196.008 177.8 197.288C179.08 198.525 180.573 199.144 182.28 199.144C182.493 199.144 182.685 199.229 182.856 199.4C183.069 199.528 183.176 199.741 183.176 200.04C183.176 200.339 183.069 200.573 182.856 200.744C182.685 200.915 182.493 201 182.28 201C181.853 201 180.979 200.979 179.656 200.936C178.333 200.851 176.733 200.808 174.856 200.808C172.637 200.808 170.952 200.851 169.8 200.936C168.691 200.979 167.901 201 167.432 201C166.877 201 166.6 200.68 166.6 200.04C166.6 199.443 166.877 199.144 167.432 199.144C169.224 199.144 170.675 198.504 171.784 197.224C172.936 195.944 173.512 193.725 173.512 190.568V160.744C173.512 159.208 173.171 158.099 172.488 157.416C171.805 156.691 170.589 156.328 168.84 156.328C168.285 156.328 168.008 156.008 168.008 155.368C168.008 154.813 168.285 154.536 168.84 154.536C169.181 154.536 170.312 154.557 172.232 154.6C174.195 154.643 176.755 154.664 179.912 154.664C180.637 154.664 181.171 154.771 181.512 154.984C181.853 155.197 182.173 155.56 182.472 156.072C182.643 156.371 183.155 157.181 184.008 158.504C184.861 159.827 185.928 161.491 187.208 163.496C188.531 165.501 189.939 167.677 191.432 170.024C192.968 172.371 194.504 174.739 196.04 177.128C197.576 179.517 199.005 181.757 200.328 183.848C201.693 185.896 202.845 187.645 203.784 189.096C204.723 190.504 205.341 191.443 205.64 191.912V165.032C205.64 161.917 205.043 159.699 203.848 158.376C202.696 157.011 201.096 156.328 199.048 156.328C198.493 156.328 198.216 156.008 198.216 155.368C198.216 154.813 198.493 154.536 199.048 154.536C199.517 154.536 200.435 154.579 201.8 154.664C203.165 154.707 204.787 154.728 206.664 154.728C208.499 154.728 210.077 154.707 211.4 154.664C212.723 154.579 213.597 154.536 214.024 154.536C214.664 154.536 214.984 154.813 214.984 155.368C214.984 156.008 214.664 156.328 214.024 156.328C212.403 156.328 210.995 156.989 209.8 158.312C208.648 159.592 208.072 161.832 208.072 165.032V189.352C208.072 191.613 208.157 193.533 208.328 195.112C208.499 196.648 208.627 198.099 208.712 199.464C208.755 199.933 208.584 200.339 208.2 200.68C207.859 200.979 206.813 201.149 205.064 201.192Z" fill="black"/>
<line x1="86.0062" y1="145" x2="243.006" y2="145.981" stroke="black" stroke-width="2"/>
<path d="M260.36 145.368C260.701 147.032 260.467 148.269 259.656 149.08C258.888 149.891 257.949 150.317 256.84 150.36C255.773 150.403 254.771 150.083 253.832 149.4C252.893 148.675 252.403 147.715 252.36 146.52C252.317 145.667 252.573 144.835 253.128 144.024C253.683 143.171 254.6 142.659 255.88 142.488C256.861 142.317 257.8 142.509 258.696 143.064C259.635 143.619 260.189 144.387 260.36 145.368Z" fill="black"/>
</svg>
